<?xml version="1.0" encoding="utf-8"?>
<!-- Generator: Adobe Illustrator 25.3.1, SVG Export Plug-In . SVG Version: 6.00 Build 0)  -->
<svg version="1.1" id="Layer_1" xmlns="http://www.w3.org/2000/svg" xmlns:xlink="http://www.w3.org/1999/xlink" x="0px" y="0px"
	 viewBox="0 0 682.7 201.9" style="enable-background:new 0 0 682.7 201.9;" xml:space="preserve">
<style type="text/css">
	.st0{fill-rule:evenodd;clip-rule:evenodd;fill:#00ADEE;}
	.st1{fill-rule:evenodd;clip-rule:evenodd;fill:#F6921E;}
	.st2{fill-rule:evenodd;clip-rule:evenodd;fill:#FFFFFF;}
	.st3{fill-rule:evenodd;clip-rule:evenodd;}
</style>
<g>
	<g>
		<path class="st2" d="M65.5,99.1L51.1,64.7L36.7,99.1H65.5L65.5,99.1z M1.1,127.9l36.3-82c2.5-5.7,7.1-9.1,13.4-9.1h1.3
			c6.2,0,10.7,3.4,13.2,9.1l36.3,82c0.7,1.6,1.2,3.1,1.2,4.6c0,6.1-4.8,11-10.9,11c-5.4,0-8.9-3.1-11-7.9l-7-16.4H28.2l-7.3,17.1
			c-1.9,4.5-5.8,7.1-10.6,7.1c-5.9,0-10.6-4.8-10.6-10.7C-0.2,131.2,0.4,129.6,1.1,127.9L1.1,127.9z"/>
		<path class="st2" d="M243.2,96.5c-1.3-10.1-7.3-17-16.8-17c-9.4,0-15.5,6.7-17.3,17H243.2L243.2,96.5z M228.6,144.4
			c-24,0-41.7-16.8-41.7-41.2v-0.3c0-22.8,16.2-41.5,39.4-41.5c26.6,0,38.4,21.9,38.4,38.4c0,6.5-4.6,10.9-10.6,10.9h-44.8
			c2.2,10.3,9.4,15.6,19.5,15.6c6.2,0,11.5-1.9,16.1-5.4c1.6-1.2,3.1-1.8,5.5-1.8c5.1,0,8.8,3.9,8.8,8.9c0,3-1.3,5.2-3,6.7
			C249.3,140.7,240.2,144.4,228.6,144.4L228.6,144.4z"/>
		<path class="st2" d="M283.1,44.5c0-6.3,5.1-11.3,11.3-11.3c6.2,0,11.3,5.1,11.3,11.3v87.8c0,6.2-5.1,11.3-11.3,11.3
			c-6.3,0-11.3-5.1-11.3-11.3V44.5L283.1,44.5z"/>
		<path class="st2" d="M328,44.5c0-6.3,5.1-11.3,11.3-11.3c6.3,0,11.3,5.1,11.3,11.3l0,87.8c0,6.2-5.1,11.3-11.3,11.3
			c-6.2,0-11.3-5.1-11.3-11.3V44.5L328,44.5z"/>
		<path class="st2" d="M424.3,96.5c-1.3-10.1-7.3-17-16.8-17c-9.4,0-15.5,6.7-17.3,17H424.3L424.3,96.5z M409.7,144.4
			c-24,0-41.7-16.8-41.7-41.2l0-0.3c0-22.8,16.2-41.5,39.4-41.5c26.6,0,38.4,21.9,38.4,38.4c0,6.5-4.6,10.9-10.6,10.9h-44.8
			c2.2,10.3,9.4,15.6,19.5,15.6c6.3,0,11.5-1.9,16.1-5.4c1.6-1.2,3.1-1.8,5.5-1.8c5.1,0,8.8,3.9,8.8,8.9c0,3-1.3,5.2-3,6.7
			C430.4,140.7,421.3,144.4,409.7,144.4L409.7,144.4z"/>
		<path class="st2" d="M463.1,73.3c0-6.3,5.1-11.3,11.3-11.3c6.2,0,11.3,5.1,11.3,11.3v3.6c3.3-7.7,8.6-14.9,15.3-14.9
			c7,0,11,4.6,11,11c0,5.9-3.9,9.5-8.5,10.6c-11.5,2.7-17.9,11.5-17.9,27.5v21.1c0,6.2-5.1,11.3-11.3,11.3
			c-6.2,0-11.3-5.1-11.3-11.3V73.3L463.1,73.3z"/>
		<path class="st2" d="M568.8,114.5v-4c-3.9-1.8-8.9-3-14.4-3c-9.7,0-15.6,3.9-15.6,11v0.3c0,6.1,5.1,9.7,12.3,9.7
			C561.6,128.5,568.8,122.7,568.8,114.5L568.8,114.5z M516.8,119.7v-0.3C516.8,102,530.1,94,549,94c8,0,13.8,1.3,19.5,3.3l0-1.3
			c0-9.4-5.8-14.6-17.1-14.6c-6.2,0-11.3,0.9-15.6,2.2c-1.3,0.4-2.2,0.6-3.3,0.6c-5.2,0-9.4-4-9.4-9.2c0-4,2.5-7.4,6.1-8.8
			c7.1-2.7,14.9-4.2,25.4-4.2c12.3,0,21.3,3.3,26.9,8.9c5.9,6,8.6,14.7,8.6,25.4v36.3c0,6.1-4.9,10.9-11,10.9
			c-6.5,0-10.9-4.6-10.9-9.4l0-0.1c-5.5,6.1-13.1,10.1-24.1,10.1C529.2,144.1,516.8,135.5,516.8,119.7L516.8,119.7z"/>
		<path class="st2" d="M609.7,73.3c0-6.3,5.1-11.3,11.3-11.3c6.2,0,11.3,5.1,11.3,11.3v0.9c5.2-6.7,11.9-12.8,23.4-12.8
			c17.1,0,27.1,11.3,27.1,29.6v41.2c0,6.2-5.1,11.3-11.3,11.3c-6.2,0-11.3-5.1-11.3-11.3V98.2c0-10.7-5.1-16.2-13.7-16.2
			c-8.6,0-14.1,5.5-14.1,16.2v34.1c0,6.2-5.1,11.3-11.3,11.3c-6.2,0-11.3-5.1-11.3-11.3V73.3L609.7,73.3z"/>
		<path class="st2" d="M169.6,99.5c0-18.6,5.7-36.5,16.4-51.6c2.9-4.1,1.9-9.8-2.2-12.7c-4.1-2.9-9.8-1.9-12.7,2.2
			c-12.9,18.2-19.7,39.7-19.7,62.2c0,22.7,7,44.4,20.2,62.8c1.8,2.5,4.6,3.8,7.4,3.8c1.8,0,3.7-0.6,5.3-1.7c4.1-2.9,5-8.6,2.1-12.7
			C175.4,136.4,169.6,118.3,169.6,99.5L169.6,99.5z"/>
		<path class="st2" d="M130.4,99.5c0-30.4,8.6-59.9,25-85.3c2.7-4.2,1.5-9.9-2.7-12.6c-1.5-1-3.2-1.4-4.9-1.5c-3,0-6,1.5-7.7,4.2
			c-18.2,28.4-27.9,61.3-27.9,95.2c0,34.2,9.8,67.3,28.3,95.9c1.7,2.7,4.7,4.2,7.7,4.2c1.7,0,3.4-0.5,5-1.5
			c4.2-2.7,5.4-8.4,2.7-12.6C139.2,159.9,130.4,130.1,130.4,99.5L130.4,99.5z"/>
	</g>
</g>
</svg>
